<svg xmlns="http://www.w3.org/2000/svg" xmlns:xlink="http://www.w3.org/1999/xlink" width="300" zoomAndPan="magnify" viewBox="0 0 224.87999 225" height="300" preserveAspectRatio="xMidYMid meet" version="1.0"><defs><g/><clipPath id="id1"><path d="M 29.777344 19 L 195.4375 19 L 195.4375 202.320312 L 29.777344 202.320312 Z M 29.777344 19 " clip-rule="nonzero"/></clipPath></defs><g clip-path="url(#id1)"><path fill="#00adb5" d="M 195.40625 121.875 C 195.429688 123.71875 195.269531 125.5625 195.167969 127.402344 C 195.113281 128.324219 194.976562 129.238281 194.882812 130.160156 C 194.773438 131.078125 194.691406 132 194.523438 132.90625 C 192.394531 147.550781 185.964844 161.570312 176.351562 172.972656 C 166.75 184.386719 153.9375 193.214844 139.625 197.960938 C 136.042969 199.117188 132.402344 200.140625 128.683594 200.792969 L 127.292969 201.058594 C 126.828125 201.148438 126.359375 201.199219 125.890625 201.269531 L 123.085938 201.667969 L 120.265625 201.929688 L 118.851562 202.058594 L 117.4375 202.117188 L 114.601562 202.230469 L 111.765625 202.207031 L 110.34375 202.191406 C 109.871094 202.171875 109.402344 202.136719 108.929688 202.109375 L 106.09375 201.9375 L 103.265625 201.625 L 101.855469 201.464844 L 100.449219 201.234375 L 97.640625 200.769531 L 94.859375 200.171875 C 80.03125 196.832031 66.140625 189.289062 55.175781 178.628906 C 44.199219 167.984375 36.191406 154.230469 32.394531 139.300781 L 31.707031 136.496094 L 31.15625 133.660156 C 31.070312 133.183594 30.964844 132.714844 30.894531 132.238281 L 30.691406 130.808594 C 30.5625 129.851562 30.40625 128.902344 30.300781 127.945312 C 30.140625 126.023438 29.902344 124.105469 29.867188 122.179688 C 29.835938 121.214844 29.773438 120.25 29.773438 119.285156 L 29.808594 116.390625 C 29.941406 108.671875 31.242188 100.960938 33.511719 93.542969 C 35.746094 86.101562 39.148438 79.027344 43.34375 72.46875 C 43.84375 71.628906 44.429688 70.851562 44.980469 70.046875 C 45.546875 69.253906 46.082031 68.4375 46.679688 67.667969 C 47.894531 66.144531 49.042969 64.5625 50.359375 63.117188 C 51.003906 62.382812 51.632812 61.636719 52.289062 60.917969 C 52.769531 60.421875 53.140625 59.835938 53.398438 59.199219 C 69.75 19.03125 126.507812 3.757812 170.152344 38.640625 C 170.832031 39.183594 170.476562 40.277344 169.609375 40.3125 C 155.015625 40.898438 144.632812 53.714844 129.773438 65.1875 C 114.027344 77.347656 93.253906 87.996094 57.109375 80.980469 C 56.964844 80.957031 56.824219 80.921875 56.683594 80.890625 C 55.1875 80.523438 54.738281 78.621094 55.949219 77.664062 C 57.222656 76.660156 58.511719 75.671875 59.816406 74.695312 C 63.097656 72.25 66.46875 69.898438 69.898438 67.628906 C 71.613281 66.492188 73.34375 65.378906 75.085938 64.28125 C 76.832031 63.183594 78.589844 62.113281 80.359375 61.058594 C 83.90625 58.945312 87.5 56.925781 91.152344 54.992188 C 94.800781 53.0625 98.503906 51.234375 102.269531 49.53125 C 106.035156 47.828125 109.859375 46.253906 113.769531 44.898438 C 115.726562 44.222656 117.703125 43.605469 119.703125 43.074219 C 120.820312 42.773438 121.941406 42.503906 123.070312 42.269531 C 123.203125 42.238281 123.167969 42.042969 123.035156 42.058594 C 121.886719 42.210938 120.738281 42.394531 119.597656 42.609375 C 117.546875 42.992188 115.511719 43.457031 113.492188 43.988281 C 109.453125 45.046875 105.476562 46.339844 101.546875 47.765625 C 97.621094 49.191406 93.742188 50.75 89.910156 52.417969 C 86.074219 54.085938 82.28125 55.851562 78.53125 57.710938 C 76.65625 58.640625 74.792969 59.59375 72.9375 60.566406 C 71.085938 61.542969 69.242188 62.542969 67.410156 63.5625 C 64.925781 64.949219 62.460938 66.378906 60.019531 67.859375 L 59.835938 68.039062 C 59.238281 68.652344 58.667969 69.296875 58.078125 69.921875 C 56.875 71.15625 55.832031 72.523438 54.714844 73.832031 C 54.167969 74.496094 53.679688 75.203125 53.15625 75.886719 C 52.648438 76.582031 52.105469 77.25 51.644531 77.980469 C 47.769531 83.660156 44.550781 89.835938 42.371094 96.390625 C 40.152344 102.929688 38.769531 109.777344 38.445312 116.71875 L 38.332031 119.320312 C 38.304688 120.1875 38.339844 121.058594 38.339844 121.929688 C 38.3125 123.667969 38.484375 125.398438 38.570312 127.136719 C 38.636719 128.003906 38.757812 128.863281 38.847656 129.730469 L 38.988281 131.027344 C 39.039062 131.460938 39.125 131.886719 39.1875 132.316406 L 39.609375 134.894531 L 40.152344 137.445312 C 43.175781 151.050781 50.070312 163.835938 59.882812 173.945312 C 69.683594 184.066406 82.34375 191.472656 96.109375 195.019531 L 98.699219 195.65625 L 101.316406 196.171875 L 102.625 196.425781 L 103.949219 196.613281 L 106.59375 196.988281 L 109.253906 197.230469 C 109.699219 197.269531 110.140625 197.316406 110.585938 197.347656 L 111.921875 197.402344 L 114.597656 197.507812 L 117.273438 197.480469 L 118.613281 197.464844 L 119.949219 197.382812 L 122.625 197.214844 L 125.289062 196.917969 C 125.734375 196.867188 126.179688 196.832031 126.621094 196.761719 L 127.945312 196.546875 C 131.488281 196.039062 134.96875 195.164062 138.410156 194.171875 C 152.15625 190.070312 164.71875 182 174.339844 171.238281 C 183.96875 160.488281 190.683594 147.027344 193.210938 132.691406 C 193.40625 131.804688 193.511719 130.898438 193.644531 130 C 193.765625 129.097656 193.925781 128.199219 194.007812 127.296875 C 194.167969 125.480469 194.378906 123.671875 194.410156 121.847656 C 194.496094 120.027344 194.542969 118.203125 194.480469 116.382812 C 194.4375 114.558594 194.332031 112.734375 194.15625 110.917969 C 193.480469 103.648438 191.796875 96.453125 189.148438 89.613281 C 192.003906 96.371094 193.914062 103.539062 194.816406 110.84375 C 195.050781 112.671875 195.210938 114.507812 195.308594 116.347656 C 195.429688 118.1875 195.441406 120.03125 195.40625 121.875 " fill-opacity="1" fill-rule="nonzero"/></g><g fill="#00adb5" fill-opacity="1"><g transform="translate(136.263183, 151.694657)"><g><path d="M 24.9375 -55.609375 C 30.78125 -55.609375 35.914062 -54.46875 40.34375 -52.1875 C 44.78125 -49.90625 48.207031 -46.648438 50.625 -42.421875 C 53.039062 -38.203125 54.25 -33.300781 54.25 -27.71875 C 54.25 -22.144531 53.039062 -17.273438 50.625 -13.109375 C 48.207031 -8.941406 44.78125 -5.710938 40.34375 -3.421875 C 35.914062 -1.140625 30.78125 0 24.9375 0 L 5.5 0 L 5.5 -55.609375 Z M 24.53125 -9.484375 C 30.375 -9.484375 34.890625 -11.078125 38.078125 -14.265625 C 41.265625 -17.453125 42.859375 -21.9375 42.859375 -27.71875 C 42.859375 -33.507812 41.265625 -38.035156 38.078125 -41.296875 C 34.890625 -44.566406 30.375 -46.203125 24.53125 -46.203125 L 16.65625 -46.203125 L 16.65625 -9.484375 Z M 24.53125 -9.484375 "/></g></g></g></svg>