<svg xmlns="http://www.w3.org/2000/svg" xmlns:xlink="http://www.w3.org/1999/xlink" width="500" zoomAndPan="magnify" viewBox="0 0 375 225" height="300" preserveAspectRatio="xMidYMid meet" version="1.0"><defs><g/><clipPath id="id1"><path d="M 29.683594 55 L 119.683594 55 L 119.683594 155.769531 L 29.683594 155.769531 Z M 29.683594 55 " clip-rule="nonzero"/></clipPath></defs><g clip-path="url(#id1)"><path fill="#00adb5" d="M 119.667969 111.730469 C 119.679688 112.738281 119.59375 113.746094 119.535156 114.753906 C 119.507812 115.257812 119.433594 115.761719 119.382812 116.261719 C 119.324219 116.765625 119.28125 117.269531 119.1875 117.765625 C 118.03125 125.785156 114.535156 133.460938 109.3125 139.703125 C 104.097656 145.949219 97.140625 150.785156 89.363281 153.382812 C 87.417969 154.015625 85.4375 154.578125 83.417969 154.933594 L 82.660156 155.078125 C 82.410156 155.128906 82.15625 155.15625 81.902344 155.195312 L 80.378906 155.410156 L 78.84375 155.554688 L 78.078125 155.625 L 77.308594 155.660156 L 75.769531 155.71875 L 74.226562 155.707031 L 73.457031 155.699219 C 73.199219 155.6875 72.941406 155.667969 72.6875 155.65625 L 71.144531 155.558594 L 69.609375 155.386719 L 68.84375 155.300781 L 68.078125 155.175781 L 66.554688 154.921875 L 65.042969 154.59375 C 56.988281 152.765625 49.441406 148.632812 43.484375 142.796875 C 37.519531 136.96875 33.167969 129.441406 31.105469 121.269531 L 30.734375 119.730469 L 30.433594 118.179688 C 30.386719 117.917969 30.328125 117.660156 30.292969 117.402344 L 30.179688 116.617188 C 30.109375 116.09375 30.027344 115.574219 29.96875 115.050781 C 29.882812 114 29.753906 112.949219 29.734375 111.894531 C 29.71875 111.367188 29.683594 110.839844 29.683594 110.3125 L 29.703125 108.726562 C 29.773438 104.5 30.480469 100.277344 31.714844 96.214844 C 32.925781 92.144531 34.773438 88.269531 37.054688 84.679688 C 37.328125 84.21875 37.644531 83.792969 37.945312 83.351562 C 38.253906 82.917969 38.542969 82.472656 38.867188 82.050781 C 39.527344 81.214844 40.152344 80.351562 40.867188 79.558594 C 41.214844 79.15625 41.558594 78.75 41.914062 78.355469 C 42.175781 78.082031 42.378906 77.761719 42.519531 77.414062 C 51.398438 55.421875 82.234375 47.0625 105.949219 66.160156 C 106.316406 66.457031 106.125 67.054688 105.652344 67.074219 C 97.722656 67.394531 92.085938 74.410156 84.011719 80.691406 C 75.457031 87.347656 64.171875 93.179688 44.535156 89.339844 C 44.457031 89.324219 44.378906 89.308594 44.300781 89.289062 C 43.488281 89.089844 43.246094 88.046875 43.902344 87.523438 C 44.59375 86.972656 45.296875 86.433594 46.003906 85.898438 C 47.785156 84.558594 49.617188 83.273438 51.480469 82.027344 C 52.414062 81.40625 53.351562 80.796875 54.300781 80.195312 C 55.25 79.597656 56.203125 79.007812 57.164062 78.433594 C 59.089844 77.277344 61.046875 76.167969 63.027344 75.109375 C 65.011719 74.054688 67.023438 73.054688 69.066406 72.121094 C 71.113281 71.1875 73.191406 70.328125 75.316406 69.585938 C 76.378906 69.214844 77.453125 68.875 78.539062 68.585938 C 79.144531 68.421875 79.753906 68.273438 80.367188 68.144531 C 80.441406 68.128906 80.421875 68.023438 80.347656 68.03125 C 79.726562 68.113281 79.101562 68.214844 78.480469 68.332031 C 77.367188 68.539062 76.261719 68.796875 75.164062 69.085938 C 72.972656 69.667969 70.808594 70.375 68.675781 71.152344 C 66.542969 71.933594 64.433594 72.789062 62.351562 73.703125 C 60.269531 74.613281 58.207031 75.582031 56.171875 76.597656 C 55.152344 77.109375 54.140625 77.628906 53.132812 78.164062 C 52.125 78.699219 51.125 79.246094 50.128906 79.800781 C 48.777344 80.5625 47.441406 81.34375 46.113281 82.15625 L 46.015625 82.253906 C 45.691406 82.589844 45.378906 82.941406 45.058594 83.285156 C 44.40625 83.960938 43.839844 84.707031 43.234375 85.425781 C 42.933594 85.789062 42.667969 86.175781 42.386719 86.550781 C 42.109375 86.929688 41.8125 87.296875 41.566406 87.695312 C 39.457031 90.804688 37.710938 94.1875 36.527344 97.777344 C 35.320312 101.355469 34.570312 105.105469 34.394531 108.90625 L 34.332031 110.328125 C 34.316406 110.804688 34.335938 111.28125 34.335938 111.757812 C 34.320312 112.710938 34.414062 113.65625 34.460938 114.609375 C 34.5 115.082031 34.5625 115.554688 34.613281 116.027344 L 34.691406 116.738281 C 34.714844 116.976562 34.761719 117.210938 34.796875 117.445312 L 35.027344 118.855469 L 35.320312 120.253906 C 36.964844 127.699219 40.710938 134.699219 46.042969 140.234375 C 51.363281 145.773438 58.242188 149.832031 65.722656 151.773438 L 67.128906 152.121094 L 69.261719 152.542969 L 69.980469 152.644531 L 71.417969 152.851562 L 72.863281 152.984375 C 73.105469 153.003906 73.34375 153.03125 73.585938 153.046875 L 74.3125 153.078125 L 75.765625 153.132812 L 77.21875 153.121094 L 77.949219 153.109375 L 78.675781 153.066406 L 80.125 152.972656 L 81.574219 152.8125 C 81.816406 152.785156 82.058594 152.765625 82.296875 152.726562 L 83.019531 152.609375 C 84.941406 152.332031 86.832031 151.851562 88.703125 151.308594 C 96.167969 149.0625 102.996094 144.644531 108.222656 138.753906 C 113.453125 132.867188 117.101562 125.5 118.472656 117.648438 C 118.582031 117.164062 118.640625 116.667969 118.710938 116.175781 C 118.773438 115.679688 118.863281 115.191406 118.90625 114.695312 C 118.992188 113.703125 119.109375 112.710938 119.125 111.710938 C 119.171875 110.714844 119.199219 109.71875 119.164062 108.71875 C 119.140625 107.722656 119.085938 106.722656 118.988281 105.730469 C 118.621094 101.75 117.707031 97.808594 116.269531 94.066406 C 117.820312 97.765625 118.855469 101.6875 119.347656 105.691406 C 119.472656 106.691406 119.5625 107.695312 119.613281 108.703125 C 119.679688 109.710938 119.683594 110.71875 119.667969 111.730469 " fill-opacity="1" fill-rule="nonzero"/></g><g fill="#00adb5" fill-opacity="1"><g transform="translate(71.243778, 127.109822)"><g><path d="M 13.625 -30.375 C 16.8125 -30.375 19.613281 -29.75 22.03125 -28.5 C 24.457031 -27.25 26.332031 -25.472656 27.65625 -23.171875 C 28.976562 -20.867188 29.640625 -18.191406 29.640625 -15.140625 C 29.640625 -12.097656 28.976562 -9.4375 27.65625 -7.15625 C 26.332031 -4.882812 24.457031 -3.125 22.03125 -1.875 C 19.613281 -0.625 16.8125 0 13.625 0 L 3 0 L 3 -30.375 Z M 13.40625 -5.171875 C 16.59375 -5.171875 19.054688 -6.039062 20.796875 -7.78125 C 22.535156 -9.53125 23.40625 -11.984375 23.40625 -15.140625 C 23.40625 -18.304688 22.535156 -20.78125 20.796875 -22.5625 C 19.054688 -24.34375 16.59375 -25.234375 13.40625 -25.234375 L 9.09375 -25.234375 L 9.09375 -5.171875 Z M 13.40625 -5.171875 "/></g></g></g><g fill="#00adb5" fill-opacity="1"><g transform="translate(104.313165, 127.109822)"><g><path d="M 6.09375 -26.984375 C 5.019531 -26.984375 4.125 -27.320312 3.40625 -28 C 2.695312 -28.6875 2.34375 -29.535156 2.34375 -30.546875 C 2.34375 -31.566406 2.695312 -32.414062 3.40625 -33.09375 C 4.125 -33.769531 5.019531 -34.109375 6.09375 -34.109375 C 7.164062 -34.109375 8.054688 -33.769531 8.765625 -33.09375 C 9.472656 -32.414062 9.828125 -31.566406 9.828125 -30.546875 C 9.828125 -29.535156 9.472656 -28.6875 8.765625 -28 C 8.054688 -27.320312 7.164062 -26.984375 6.09375 -26.984375 Z M 9.09375 -24.109375 L 9.09375 0 L 3 0 L 3 -24.109375 Z M 9.09375 -24.109375 "/></g></g></g><g fill="#00adb5" fill-opacity="1"><g transform="translate(118.280921, 127.109822)"><g><path d="M 12.453125 -24.5 C 14.242188 -24.5 15.820312 -24.140625 17.1875 -23.421875 C 18.550781 -22.710938 19.625 -21.796875 20.40625 -20.671875 L 20.40625 -24.109375 L 26.546875 -24.109375 L 26.546875 0.171875 C 26.546875 2.410156 26.09375 4.40625 25.1875 6.15625 C 24.289062 7.914062 22.941406 9.304688 21.140625 10.328125 C 19.347656 11.359375 17.175781 11.875 14.625 11.875 C 11.195312 11.875 8.390625 11.078125 6.203125 9.484375 C 4.015625 7.890625 2.773438 5.710938 2.484375 2.953125 L 8.53125 2.953125 C 8.84375 4.054688 9.53125 4.9375 10.59375 5.59375 C 11.65625 6.25 12.941406 6.578125 14.453125 6.578125 C 16.222656 6.578125 17.65625 6.046875 18.75 4.984375 C 19.851562 3.921875 20.40625 2.316406 20.40625 0.171875 L 20.40625 -3.5625 C 19.625 -2.4375 18.539062 -1.492188 17.15625 -0.734375 C 15.78125 0.015625 14.210938 0.390625 12.453125 0.390625 C 10.421875 0.390625 8.5625 -0.128906 6.875 -1.171875 C 5.195312 -2.210938 3.867188 -3.679688 2.890625 -5.578125 C 1.921875 -7.484375 1.4375 -9.671875 1.4375 -12.140625 C 1.4375 -14.578125 1.921875 -16.738281 2.890625 -18.625 C 3.867188 -20.507812 5.191406 -21.957031 6.859375 -22.96875 C 8.523438 -23.988281 10.390625 -24.5 12.453125 -24.5 Z M 20.40625 -12.046875 C 20.40625 -13.523438 20.113281 -14.796875 19.53125 -15.859375 C 18.957031 -16.921875 18.175781 -17.734375 17.1875 -18.296875 C 16.195312 -18.859375 15.140625 -19.140625 14.015625 -19.140625 C 12.878906 -19.140625 11.832031 -18.863281 10.875 -18.3125 C 9.914062 -17.769531 9.140625 -16.96875 8.546875 -15.90625 C 7.953125 -14.84375 7.65625 -13.585938 7.65625 -12.140625 C 7.65625 -10.691406 7.953125 -9.421875 8.546875 -8.328125 C 9.140625 -7.242188 9.921875 -6.410156 10.890625 -5.828125 C 11.867188 -5.242188 12.910156 -4.953125 14.015625 -4.953125 C 15.140625 -4.953125 16.195312 -5.234375 17.1875 -5.796875 C 18.175781 -6.367188 18.957031 -7.179688 19.53125 -8.234375 C 20.113281 -9.296875 20.40625 -10.566406 20.40625 -12.046875 Z M 20.40625 -12.046875 "/></g></g></g><g fill="#00adb5" fill-opacity="1"><g transform="translate(149.653358, 127.109822)"><g><path d="M 6.09375 -26.984375 C 5.019531 -26.984375 4.125 -27.320312 3.40625 -28 C 2.695312 -28.6875 2.34375 -29.535156 2.34375 -30.546875 C 2.34375 -31.566406 2.695312 -32.414062 3.40625 -33.09375 C 4.125 -33.769531 5.019531 -34.109375 6.09375 -34.109375 C 7.164062 -34.109375 8.054688 -33.769531 8.765625 -33.09375 C 9.472656 -32.414062 9.828125 -31.566406 9.828125 -30.546875 C 9.828125 -29.535156 9.472656 -28.6875 8.765625 -28 C 8.054688 -27.320312 7.164062 -26.984375 6.09375 -26.984375 Z M 9.09375 -24.109375 L 9.09375 0 L 3 0 L 3 -24.109375 Z M 9.09375 -24.109375 "/></g></g></g><g fill="#00adb5" fill-opacity="1"><g transform="translate(163.621112, 127.109822)"><g><path d="M 10.09375 -19.109375 L 10.09375 -7.4375 C 10.09375 -6.625 10.285156 -6.035156 10.671875 -5.671875 C 11.066406 -5.316406 11.726562 -5.140625 12.65625 -5.140625 L 15.484375 -5.140625 L 15.484375 0 L 11.65625 0 C 6.519531 0 3.953125 -2.492188 3.953125 -7.484375 L 3.953125 -19.109375 L 1.09375 -19.109375 L 1.09375 -24.109375 L 3.953125 -24.109375 L 3.953125 -30.0625 L 10.09375 -30.0625 L 10.09375 -24.109375 L 15.484375 -24.109375 L 15.484375 -19.109375 Z M 10.09375 -19.109375 "/></g></g></g><g fill="#00adb5" fill-opacity="1"><g transform="translate(182.375151, 127.109822)"><g><path d="M 1.4375 -12.140625 C 1.4375 -14.578125 1.921875 -16.738281 2.890625 -18.625 C 3.867188 -20.507812 5.191406 -21.957031 6.859375 -22.96875 C 8.523438 -23.988281 10.390625 -24.5 12.453125 -24.5 C 14.242188 -24.5 15.8125 -24.132812 17.15625 -23.40625 C 18.507812 -22.6875 19.59375 -21.773438 20.40625 -20.671875 L 20.40625 -24.109375 L 26.546875 -24.109375 L 26.546875 0 L 20.40625 0 L 20.40625 -3.53125 C 19.625 -2.394531 18.539062 -1.457031 17.15625 -0.71875 C 15.78125 0.0195312 14.195312 0.390625 12.40625 0.390625 C 10.375 0.390625 8.523438 -0.128906 6.859375 -1.171875 C 5.191406 -2.210938 3.867188 -3.679688 2.890625 -5.578125 C 1.921875 -7.484375 1.4375 -9.671875 1.4375 -12.140625 Z M 20.40625 -12.046875 C 20.40625 -13.523438 20.113281 -14.796875 19.53125 -15.859375 C 18.957031 -16.921875 18.175781 -17.734375 17.1875 -18.296875 C 16.195312 -18.859375 15.140625 -19.140625 14.015625 -19.140625 C 12.878906 -19.140625 11.832031 -18.863281 10.875 -18.3125 C 9.914062 -17.769531 9.140625 -16.96875 8.546875 -15.90625 C 7.953125 -14.84375 7.65625 -13.585938 7.65625 -12.140625 C 7.65625 -10.691406 7.953125 -9.421875 8.546875 -8.328125 C 9.140625 -7.242188 9.921875 -6.410156 10.890625 -5.828125 C 11.867188 -5.242188 12.910156 -4.953125 14.015625 -4.953125 C 15.140625 -4.953125 16.195312 -5.234375 17.1875 -5.796875 C 18.175781 -6.367188 18.957031 -7.179688 19.53125 -8.234375 C 20.113281 -9.296875 20.40625 -10.566406 20.40625 -12.046875 Z M 20.40625 -12.046875 "/></g></g></g><g fill="#00adb5" fill-opacity="1"><g transform="translate(213.747582, 127.109822)"><g><path d="M 9.09375 -32.203125 L 9.09375 0 L 3 0 L 3 -32.203125 Z M 9.09375 -32.203125 "/></g></g></g><g fill="#000000" fill-opacity="1"><g transform="translate(227.712521, 127.109822)"><g><path d="M 32.9375 -24.453125 C 35.894531 -24.453125 38.28125 -23.546875 40.09375 -21.734375 C 41.90625 -19.921875 42.8125 -17.390625 42.8125 -14.140625 L 42.8125 0 L 36.734375 0 L 36.734375 -13.3125 C 36.734375 -15.195312 36.253906 -16.640625 35.296875 -17.640625 C 34.335938 -18.640625 33.03125 -19.140625 31.375 -19.140625 C 29.71875 -19.140625 28.40625 -18.640625 27.4375 -17.640625 C 26.46875 -16.640625 25.984375 -15.195312 25.984375 -13.3125 L 25.984375 0 L 19.890625 0 L 19.890625 -13.3125 C 19.890625 -15.195312 19.410156 -16.640625 18.453125 -17.640625 C 17.492188 -18.640625 16.1875 -19.140625 14.53125 -19.140625 C 12.851562 -19.140625 11.523438 -18.640625 10.546875 -17.640625 C 9.578125 -16.640625 9.09375 -15.195312 9.09375 -13.3125 L 9.09375 0 L 3 0 L 3 -24.109375 L 9.09375 -24.109375 L 9.09375 -21.1875 C 9.875 -22.207031 10.878906 -23.003906 12.109375 -23.578125 C 13.347656 -24.160156 14.707031 -24.453125 16.1875 -24.453125 C 18.070312 -24.453125 19.753906 -24.050781 21.234375 -23.25 C 22.710938 -22.457031 23.859375 -21.320312 24.671875 -19.84375 C 25.453125 -21.238281 26.585938 -22.351562 28.078125 -23.1875 C 29.578125 -24.03125 31.195312 -24.453125 32.9375 -24.453125 Z M 32.9375 -24.453125 "/></g></g></g><g fill="#000000" fill-opacity="1"><g transform="translate(275.184286, 127.109822)"><g><path d="M 25.765625 -24.109375 L 25.765625 0 L 19.625 0 L 19.625 -3.046875 C 18.84375 -2.003906 17.820312 -1.1875 16.5625 -0.59375 C 15.300781 0 13.929688 0.296875 12.453125 0.296875 C 10.554688 0.296875 8.882812 -0.0976562 7.4375 -0.890625 C 5.988281 -1.691406 4.847656 -2.867188 4.015625 -4.421875 C 3.191406 -5.972656 2.78125 -7.820312 2.78125 -9.96875 L 2.78125 -24.109375 L 8.875 -24.109375 L 8.875 -10.828125 C 8.875 -8.921875 9.351562 -7.453125 10.3125 -6.421875 C 11.269531 -5.390625 12.578125 -4.875 14.234375 -4.875 C 15.910156 -4.875 17.226562 -5.390625 18.1875 -6.421875 C 19.144531 -7.453125 19.625 -8.921875 19.625 -10.828125 L 19.625 -24.109375 Z M 25.765625 -24.109375 "/></g></g></g><g fill="#000000" fill-opacity="1"><g transform="translate(305.81702, 127.109822)"><g><path d="M 6.09375 -26.984375 C 4.988281 -26.984375 4.082031 -27.320312 3.375 -28 C 2.664062 -28.6875 2.3125 -29.535156 2.3125 -30.546875 C 2.3125 -31.566406 2.664062 -32.414062 3.375 -33.09375 C 4.082031 -33.769531 4.988281 -34.109375 6.09375 -34.109375 C 7.164062 -34.109375 8.050781 -33.769531 8.75 -33.09375 C 9.445312 -32.414062 9.796875 -31.566406 9.796875 -30.546875 C 9.796875 -29.535156 9.445312 -28.6875 8.75 -28 C 8.050781 -27.320312 7.164062 -26.984375 6.09375 -26.984375 Z M 9.09375 3.953125 C 9.09375 6.628906 8.429688 8.550781 7.109375 9.71875 C 5.796875 10.894531 3.90625 11.484375 1.4375 11.484375 L -1.265625 11.484375 L -1.265625 6.3125 L 0.484375 6.3125 C 1.410156 6.3125 2.0625 6.128906 2.4375 5.765625 C 2.8125 5.398438 3 4.8125 3 4 L 3 -24.109375 L 9.09375 -24.109375 Z M 9.09375 3.953125 "/></g></g></g><g fill="#000000" fill-opacity="1"><g transform="translate(319.784779, 127.109822)"><g><path d="M 6.09375 -26.984375 C 5.019531 -26.984375 4.125 -27.320312 3.40625 -28 C 2.695312 -28.6875 2.34375 -29.535156 2.34375 -30.546875 C 2.34375 -31.566406 2.695312 -32.414062 3.40625 -33.09375 C 4.125 -33.769531 5.019531 -34.109375 6.09375 -34.109375 C 7.164062 -34.109375 8.054688 -33.769531 8.765625 -33.09375 C 9.472656 -32.414062 9.828125 -31.566406 9.828125 -30.546875 C 9.828125 -29.535156 9.472656 -28.6875 8.765625 -28 C 8.054688 -27.320312 7.164062 -26.984375 6.09375 -26.984375 Z M 9.09375 -24.109375 L 9.09375 0 L 3 0 L 3 -24.109375 Z M 9.09375 -24.109375 "/></g></g></g><g fill="#000000" fill-opacity="1"><g transform="translate(333.752533, 127.109822)"><g><path d="M 9.09375 -20.578125 C 9.875 -21.742188 10.953125 -22.6875 12.328125 -23.40625 C 13.710938 -24.132812 15.289062 -24.5 17.0625 -24.5 C 19.113281 -24.5 20.972656 -23.988281 22.640625 -22.96875 C 24.316406 -21.957031 25.640625 -20.515625 26.609375 -18.640625 C 27.578125 -16.773438 28.0625 -14.609375 28.0625 -12.140625 C 28.0625 -9.671875 27.578125 -7.484375 26.609375 -5.578125 C 25.640625 -3.679688 24.316406 -2.210938 22.640625 -1.171875 C 20.972656 -0.128906 19.113281 0.390625 17.0625 0.390625 C 15.257812 0.390625 13.679688 0.0351562 12.328125 -0.671875 C 10.984375 -1.378906 9.90625 -2.300781 9.09375 -3.4375 L 9.09375 0 L 3 0 L 3 -32.203125 L 9.09375 -32.203125 Z M 21.84375 -12.140625 C 21.84375 -13.585938 21.546875 -14.84375 20.953125 -15.90625 C 20.359375 -16.96875 19.570312 -17.769531 18.59375 -18.3125 C 17.625 -18.863281 16.578125 -19.140625 15.453125 -19.140625 C 14.347656 -19.140625 13.304688 -18.859375 12.328125 -18.296875 C 11.359375 -17.734375 10.578125 -16.914062 9.984375 -15.84375 C 9.390625 -14.769531 9.09375 -13.503906 9.09375 -12.046875 C 9.09375 -10.597656 9.390625 -9.335938 9.984375 -8.265625 C 10.578125 -7.191406 11.359375 -6.367188 12.328125 -5.796875 C 13.304688 -5.234375 14.347656 -4.953125 15.453125 -4.953125 C 16.578125 -4.953125 17.625 -5.242188 18.59375 -5.828125 C 19.570312 -6.410156 20.359375 -7.238281 20.953125 -8.3125 C 21.546875 -9.382812 21.84375 -10.660156 21.84375 -12.140625 Z M 21.84375 -12.140625 "/></g></g></g></svg>