<svg xmlns="http://www.w3.org/2000/svg" xmlns:xlink="http://www.w3.org/1999/xlink" width="1080" zoomAndPan="magnify" viewBox="0 0 810 809.999993" height="1080" preserveAspectRatio="xMidYMid meet" version="1.0"><defs><clipPath id="id1"><path d="M 22.910156 22.910156 L 787.160156 22.910156 L 787.160156 787.160156 L 22.910156 787.160156 Z M 22.910156 22.910156 " clip-rule="nonzero"/></clipPath></defs><g clip-path="url(#id1)"><path fill="#00adb5" d="M 405.035156 22.910156 C 193.992188 22.910156 22.910156 193.992188 22.910156 405.035156 C 22.910156 616.074219 193.992188 787.160156 405.035156 787.160156 C 616.074219 787.160156 787.160156 616.074219 787.160156 405.035156 C 787.160156 193.992188 616.074219 22.910156 405.035156 22.910156 " fill-opacity="1" fill-rule="nonzero"/></g><path fill="#ffffff" d="M 176.59375 376.875 L 514.105469 376.875 L 514.105469 433.125 L 176.59375 433.125 " fill-opacity="1" fill-rule="nonzero"/><path stroke-linecap="butt" transform="matrix(56.242804, 0, 0, 56.249997, 175.844409, 576.359055)" fill="none" stroke-linejoin="miter" d="M -0.000011718 0.00000568882 L 8.147767 0.00000568882 " stroke="#ffffff" stroke-width="1" stroke-opacity="1" stroke-miterlimit="4"/><path stroke-linecap="butt" transform="matrix(56.242804, 0, 0, 56.249997, 175.844409, 230.333987)" fill="none" stroke-linejoin="miter" d="M -0.000011718 0.0000346789 L 8.147767 0.0000346789 " stroke="#ffffff" stroke-width="1" stroke-opacity="1" stroke-miterlimit="4"/></svg>